<svg xmlns="http://www.w3.org/2000/svg" viewBox="0 0 640 400">
<rect width="640" height="400" fill="#EAF7FC"/>
<g stroke="#3FA7D6" stroke-width="1" opacity="0.25">
<line x1="0" y1="0" x2="0" y2="400"/>
<line x1="40" y1="0" x2="40" y2="400"/>
<line x1="80" y1="0" x2="80" y2="400"/>
<line x1="120" y1="0" x2="120" y2="400"/>
<line x1="160" y1="0" x2="160" y2="400"/>
<line x1="200" y1="0" x2="200" y2="400"/>
<line x1="240" y1="0" x2="240" y2="400"/>
<line x1="280" y1="0" x2="280" y2="400"/>
<line x1="320" y1="0" x2="320" y2="400"/>
<line x1="360" y1="0" x2="360" y2="400"/>
<line x1="400" y1="0" x2="400" y2="400"/>
<line x1="440" y1="0" x2="440" y2="400"/>
<line x1="480" y1="0" x2="480" y2="400"/>
<line x1="520" y1="0" x2="520" y2="400"/>
<line x1="560" y1="0" x2="560" y2="400"/>
<line x1="600" y1="0" x2="600" y2="400"/>
<line x1="640" y1="0" x2="640" y2="400"/>
<line x1="0" y1="0" x2="640" y2="0"/>
<line x1="0" y1="40" x2="640" y2="40"/>
<line x1="0" y1="80" x2="640" y2="80"/>
<line x1="0" y1="120" x2="640" y2="120"/>
<line x1="0" y1="160" x2="640" y2="160"/>
<line x1="0" y1="200" x2="640" y2="200"/>
<line x1="0" y1="240" x2="640" y2="240"/>
<line x1="0" y1="280" x2="640" y2="280"/>
<line x1="0" y1="320" x2="640" y2="320"/>
<line x1="0" y1="360" x2="640" y2="360"/>
<line x1="0" y1="400" x2="640" y2="400"/>
</g>
<g transform="translate(320,190)">
<circle r="72" fill="none" stroke="#3FA7D6" stroke-width="2" opacity="0.5"/>
<circle r="46" fill="#3FA7D6" opacity="0.12"/>
</g>
<text x="320" y="330" font-family="monospace" font-size="16" fill="#3FA7D6" text-anchor="middle" letter-spacing="2">Airfield 1</text>
<text x="320" y="354" font-family="monospace" font-size="11" fill="#3FA7D6" text-anchor="middle" opacity="0.6" letter-spacing="4">IMAGE PLACEHOLDER</text>
</svg>